<!--
Icon by Kevin Navia
kevin@pixelpush.io
License: https://creativecommons.org/licenses/by/3.0/
-->
<svg xmlns="http://www.w3.org/2000/svg" width="512" height="512" viewBox="0 0 512 512">
    <path fill="#FFF" d="M462.653 387.234c0 10.685-8.742 19.428-19.429 19.428H33.291c-10.686 0-19.428-8.743-19.428-19.428V32.67c0-10.686 8.742-19.428 19.428-19.428h409.934c10.687 0 19.429 8.742 19.429 19.428v354.564z"/>
    <path fill="#5C6F77" d="M443.225 5.956H33.291c-14.73 0-26.714 11.984-26.714 26.714v354.564c0 14.729 11.984 26.712 26.714 26.712h409.934c14.73 0 26.714-11.983 26.714-26.712V32.67c-.001-14.73-11.984-26.714-26.714-26.714zM33.291 20.527h409.934c6.695 0 12.144 5.447 12.144 12.143v27.779H21.148V32.67c0-6.695 5.448-12.143 12.143-12.143zm409.934 378.849H33.291c-6.695 0-12.143-5.446-12.143-12.142V75.02h434.22v312.215c0 6.695-5.448 12.141-12.143 12.141z"/>
    <circle fill="#5C6F77" cx="43.975" cy="40.984" r="7.448"/>
    <circle fill="#5C6F77" cx="69.232" cy="40.984" r="7.448"/>
    <circle fill="#5C6F77" cx="93.84" cy="40.984" r="7.448"/>
    <g>
        <path fill="#5C6F77" d="M195.053 293.699c-24.812 0-45.003-20.191-45.003-45.003s20.192-45.003 45.003-45.003c24.813 0 45.005 20.192 45.005 45.003s-20.191 45.003-45.005 45.003zm95.534-32.395c.527-4.118.904-8.237.904-12.607 0-4.369-.377-8.488-.904-12.606l27.135-21.209c2.45-1.934 3.077-5.399 1.544-8.225l-25.715-44.502c-1.545-2.826-5.023-3.855-7.848-2.826l-32.009 12.859c-6.692-5.135-13.886-9.38-21.735-12.594l-4.884-34.08c-.39-3.089-3.088-5.398-6.304-5.398h-51.432c-3.216 0-5.915 2.31-6.304 5.398l-4.885 34.08c-7.848 3.214-15.044 7.584-21.736 12.594l-32.008-12.859c-2.951-1.154-6.303 0-7.847 2.826l-25.717 44.502c-1.67 2.825-.904 6.291 1.544 8.225l27.136 21.209c-.527 4.118-.904 8.362-.904 12.606s.377 8.489.904 12.607l-27.136 21.209c-2.448 1.934-3.076 5.398-1.544 8.225l25.717 44.499c1.544 2.826 5.023 3.854 7.847 2.826l32.008-12.857c6.692 5.134 13.888 9.379 21.736 12.594l4.885 34.08c.39 3.088 3.088 5.397 6.304 5.397h51.432c3.216 0 5.915-2.31 6.304-5.397l4.884-34.08c7.85-3.215 15.043-7.584 21.735-12.594l32.009 12.857c2.95 1.155 6.303 0 7.848-2.826l25.715-44.499c1.533-2.826.906-6.291-1.544-8.225l-27.135-21.209zM359.333 148.958c-8.502 0-15.421-6.918-15.421-15.42 0-8.502 6.919-15.421 15.421-15.421s15.421 6.919 15.421 15.421c0 8.502-6.919 15.42-15.421 15.42zm32.734-11.101c.181-1.411.31-2.822.31-4.319 0-1.498-.129-2.909-.31-4.32l9.298-7.268c.84-.662 1.055-1.85.53-2.818l-8.812-15.249c-.529-.968-1.722-1.321-2.688-.968l-10.969 4.406c-2.293-1.759-4.758-3.214-7.447-4.315l-1.674-11.678c-.134-1.059-1.059-1.85-2.16-1.85h-17.623c-1.102 0-2.026.792-2.16 1.85l-1.675 11.678c-2.688 1.101-5.154 2.599-7.446 4.315l-10.968-4.406c-1.012-.396-2.16 0-2.689.968l-8.812 15.249c-.572.968-.311 2.156.528 2.818l9.299 7.268c-.181 1.411-.311 2.865-.311 4.32 0 1.454.13 2.908.311 4.319l-9.299 7.268c-.839.663-1.054 1.85-.528 2.818l8.812 15.248c.529.969 1.722 1.321 2.689.969l10.968-4.407c2.292 1.76 4.759 3.215 7.446 4.316l1.675 11.677c.134 1.059 1.059 1.85 2.16 1.85h17.623c1.102 0 2.026-.792 2.16-1.85l1.674-11.677c2.689-1.101 5.154-2.599 7.447-4.316l10.969 4.407c1.011.395 2.159 0 2.688-.969l8.812-15.248c.524-.968.31-2.156-.53-2.818l-9.298-7.268z"/>
    </g>
    <g>
        <path fill="#C6C6C5" d="M482.18 185.974H227.832s-15.247 0-15.247 17.326v139.996h287.613V203.299s1.387-17.325-18.018-17.325z"/>
        <path fill="#424A56" d="M500.198 348.493H212.585c-2.872 0-5.198-2.327-5.198-5.197V203.299c0-18.478 14.758-22.524 20.445-22.524H482.18c7.604 0 13.555 2.271 17.689 6.75 5.729 6.206 5.624 14.219 5.528 15.942v139.829c0 2.87-2.327 5.197-5.199 5.197zm-282.414-10.395h277.218V203.299c0-.138.005-.277.016-.414 0-.008.276-5.048-2.838-8.364-2.089-2.222-5.453-3.35-10-3.35H227.832c.025 0-2.755.076-5.327 1.647-3.177 1.94-4.721 5.369-4.721 10.481v134.799z"/>
        <path fill="#FFF" d="M271.493 212.31h173.348v106.976H271.493z"/>
        <path fill="#C6C6C5" d="M482.18 500.846H227.832s-15.247 0-15.247-17.325V343.526h287.613v139.995s1.387 17.325-18.018 17.325z"/>
        <path fill="#424A56" d="M482.18 506.044H227.832c-5.687 0-20.445-4.046-20.445-22.523V343.525c0-2.872 2.327-5.197 5.198-5.197h287.613c2.872 0 5.199 2.325 5.199 5.197v139.828c.096 1.723.201 9.735-5.528 15.941-4.135 4.479-10.086 6.75-17.689 6.75zM217.784 348.723v134.798c0 11.788 9.019 12.129 10.048 12.129H482.18c4.547 0 7.911-1.127 10-3.351 3.114-3.316 2.838-8.356 2.835-8.408-.011-.138-.013-.232-.013-.37V348.723H217.784zM418.882 324.235H272.187c-2.871 0-5.197-2.326-5.197-5.198V212.31c0-2.872 2.326-5.198 5.197-5.198h172.569c2.87 0 5.197 2.326 5.197 5.198v61.476c0 2.871-2.327 5.197-5.197 5.197-2.871 0-5.198-2.326-5.198-5.197v-56.277H277.384v96.333h141.498c2.871 0 5.198 2.327 5.198 5.196 0 2.871-2.327 5.197-5.198 5.197z"/>
        <path fill="#FFF" d="M272.16 377.947h172.596v106.396H272.16z"/>
        <path fill="#424A56" d="M444.729 324.431c-2.872 0-5.197-2.325-5.197-5.196v-23.563c0-2.871 2.325-5.198 5.197-5.198 2.871 0 5.197 2.327 5.197 5.198v23.563c0 2.87-2.326 5.196-5.197 5.196zM272.187 465.618c-2.871 0-5.197-2.327-5.197-5.199v-82.704c0-2.869 2.326-5.197 5.197-5.197h172.569c2.87 0 5.197 2.328 5.197 5.197v106.269c0 2.872-2.327 5.198-5.197 5.198H324.174c-2.872 0-5.198-2.326-5.198-5.198s2.326-5.198 5.198-5.198h115.384v-95.871H277.384v77.505c0 2.871-2.326 5.198-5.197 5.198zM241.462 371.824c-2.872 0-5.199-2.326-5.199-5.197v-21.715c0-2.872 2.327-5.198 5.199-5.198s5.198 2.326 5.198 5.198v21.715c0 2.871-2.327 5.197-5.198 5.197zM473.401 371.824c-2.87 0-5.197-2.326-5.197-5.197v-21.715c0-2.872 2.327-5.198 5.197-5.198 2.871 0 5.198 2.326 5.198 5.198v21.715c.001 2.871-2.327 5.197-5.198 5.197z"/>
        <g>
            <path fill="#424A56" d="M301.648 489.44h-30.031c-2.871 0-5.198-2.327-5.198-5.199 0-2.87 2.327-5.197 5.198-5.197h30.031c2.87 0 5.198 2.327 5.198 5.197.001 2.872-2.327 5.199-5.198 5.199z"/>
        </g>
        <g>
            <path fill="#424A56" d="M259.51 438.626h-12.296v-12.294h-8.781v12.294h-12.296v8.782h12.296v12.296h8.781v-12.296h12.296z"/>
            <path fill="#FFF" d="M242.824 408.143c-5.502 0-9.979-4.478-9.979-9.979 0-5.503 4.476-9.979 9.979-9.979 5.502 0 9.978 4.476 9.978 9.979 0 5.501-4.476 9.979-9.978 9.979z"/>
            <path fill="#424A56" d="M242.824 391.303c3.782 0 6.859 3.079 6.859 6.86 0 3.783-3.078 6.86-6.859 6.86-3.783 0-6.86-3.077-6.86-6.86 0-3.781 3.077-6.86 6.86-6.86m0-6.238c-7.234 0-13.098 5.864-13.098 13.098s5.864 13.098 13.098 13.098c7.232 0 13.097-5.864 13.097-13.098s-5.864-13.098-13.097-13.098z"/>
            <circle fill="#424A56" cx="460.919" cy="387.518" r="5.858"/>
            <g>
                <circle fill="#424A56" cx="460.268" cy="421.368" r="5.858"/>
                <circle fill="#424A56" cx="484.352" cy="421.368" r="5.859"/>
                <g>
                    <circle fill="#424A56" cx="472.31" cy="433.412" r="5.858"/>
                    <circle fill="#424A56" cx="472.31" cy="409.327" r="5.859"/>
                </g>
            </g>
        </g>
    </g>
</svg>
