/* XPM */
static char * cutentr_xpm[] = {
"32 32 193 2",
"  	c None",
". 	c #64767E",
"+ 	c #6F8086",
"@ 	c #6D7F85",
"# 	c #8C9AA0",
"$ 	c #D3D8DA",
"% 	c #D4D9DB",
"& 	c #D0D5D8",
"* 	c #72838A",
"= 	c #6A7B83",
"- 	c #CBD1D3",
"; 	c #ACB6BA",
"> 	c #E8EBED",
", 	c #A3AEB2",
"' 	c #B9C1C5",
") 	c #E0E4E5",
"! 	c #FFFFFF",
"~ 	c #B5BDC1",
"{ 	c #DEE2E4",
"] 	c #95A1A6",
"^ 	c #819096",
"/ 	c #929FA4",
"( 	c #73848B",
"_ 	c #F0F2F3",
": 	c #BEC5C9",
"< 	c #F5F7F7",
"[ 	c #A3AFB3",
"} 	c #BFC7CA",
"| 	c #A0ABB0",
"1 	c #5C6F77",
"2 	c #A7B2B6",
"3 	c #C5CCCE",
"4 	c #C6CDD0",
"5 	c #B3BCC0",
"6 	c #B4BCC0",
"7 	c #F5F6F6",
"8 	c #F2F4F4",
"9 	c #63757D",
"0 	c #6F8087",
"a 	c #B7C0C3",
"b 	c #6B7C83",
"c 	c #697A82",
"d 	c #FAFAFB",
"e 	c #6C7D84",
"f 	c #D0D6D8",
"g 	c #FEFEFE",
"h 	c #8F9CA2",
"i 	c #94A1A6",
"j 	c #9CA7AC",
"k 	c #FBFCFC",
"l 	c #F7F8F8",
"m 	c #FDFDFD",
"n 	c #64767D",
"o 	c #60727A",
"p 	c #849399",
"q 	c #5D7078",
"r 	c #C4CBCE",
"s 	c #7D8C93",
"t 	c #667880",
"u 	c #AEB7BB",
"v 	c #6E7F86",
"w 	c #A5AFB4",
"x 	c #EAECED",
"y 	c #C5CCCF",
"z 	c #D2D7DA",
"A 	c #EBEDEE",
"B 	c #58666F",
"C 	c #59626B",
"D 	c #59626C",
"E 	c #747A82",
"F 	c #797E86",
"G 	c #757B83",
"H 	c #676E77",
"I 	c #586069",
"J 	c #565D67",
"K 	c #C9D0D2",
"L 	c #718289",
"M 	c #7C8B92",
"N 	c #636A73",
"O 	c #C6C6C5",
"P 	c #C5C5C4",
"Q 	c #BDBEBE",
"R 	c #BFBFBF",
"S 	c #B1B2B3",
"T 	c #555B66",
"U 	c #C8CED1",
"V 	c #C4CACD",
"W 	c #F8F8F8",
"X 	c #A0A2A5",
"Y 	c #70767F",
"Z 	c #888C94",
"` 	c #616771",
" .	c #B8B9B9",
"..	c #BEBFBE",
"+.	c #585E68",
"@.	c #DCE0E2",
"#.	c #687981",
"$.	c #97A4A9",
"%.	c #7B8088",
"&.	c #9EA0A4",
"*.	c #BFC2C6",
"=.	c #979BA1",
"-.	c #B6B7B7",
";.	c #798990",
">.	c #E5E8EA",
",.	c #9DA8AD",
"'.	c #5F727A",
").	c #7A7F87",
"!.	c #D2D4D6",
"~.	c #C2C2C2",
"{.	c #C2C9CC",
"].	c #7F8D94",
"^.	c #88959A",
"/.	c #6A717A",
"(.	c #ABAEB3",
"_.	c #BBBCBD",
":.	c #5B6E75",
"<.	c #697079",
"[.	c #9EA1A4",
"}.	c #8D9199",
"|.	c #B2B6BA",
"1.	c #DEDFE1",
"2.	c #969AA0",
"3.	c #D9DEE0",
"4.	c #87959B",
"5.	c #B7BFC3",
"6.	c #A3A5A7",
"7.	c #F4F5F6",
"8.	c #F3F5F5",
"9.	c #5B6D76",
"0.	c #505862",
"a.	c #5B616B",
"b.	c #595F6A",
"c.	c #626871",
"d.	c #5F656E",
"e.	c #525863",
"f.	c #5D636C",
"g.	c #545B66",
"h.	c #697B82",
"i.	c #A7A9AB",
"j.	c #8F9397",
"k.	c #70757D",
"l.	c #9DA9AD",
"m.	c #9AA5A9",
"n.	c #71777F",
"o.	c #C3C3C2",
"p.	c #ACAEAF",
"q.	c #72777F",
"r.	c #757A82",
"s.	c #71767E",
"t.	c #B9BABA",
"u.	c #65777F",
"v.	c #AAB3B8",
"w.	c #EDEEEF",
"x.	c #A4A7AA",
"y.	c #989CA0",
"z.	c #9D9FA2",
"A.	c #979BA0",
"B.	c #97999C",
"C.	c #BEBEBE",
"D.	c #697B81",
"E.	c #66777F",
"F.	c #64767C",
"G.	c #ADAFB1",
"H.	c #A0A3A7",
"I.	c #93969A",
"J.	c #6B7079",
"K.	c #B1B3B3",
"L.	c #AEAFB0",
"M.	c #929699",
"N.	c #81868B",
"O.	c #636972",
"P.	c #939599",
"Q.	c #A5A7AA",
"R.	c #BDBDBD",
"S.	c #9B9DA0",
"T.	c #C1C4C8",
"U.	c #C4C4C3",
"V.	c #F0F1F2",
"W.	c #F3F4F4",
"X.	c #F5F5F6",
"Y.	c #F2F3F4",
"Z.	c #90949B",
"`.	c #60676F",
" +	c #7D8189",
".+	c #7E838A",
"++	c #CBCCCC",
"@+	c #80858C",
"#+	c #7E8289",
"$+	c #C0C0C0",
"%+	c #AAACAE",
"&+	c #555C65",
"*+	c #5A5F6A",
"  . + + + + + + + + + + + + + + + + + + + + + + + + + @         ",
"  # $ % % % % % % % % % % % % % % % % % % % % % % % % & *       ",
"= - ; > , ' ) ! ! ! ! ! ! ! ! ! ! ! ! ! ! ! ! ! ! ! ! ! ,       ",
"= ~ { { { { { { { { { { { { { { { { { { { { { { { { { { ]       ",
"= ^ / / / / / / / / / / / / / / / / / / / / / / / / / / (       ",
"= - ! ! ! ! ! ! ! ! ! ! ! ! ! ! ! ! ! ! ! _ : < ! ! ! ! [       ",
"= - ! ! ! ! ! ! ! ! ! ! ! ! ! ! ! ! ! ! } | 1 2 3 ! ! ! [       ",
"= - ! ! ! ! ! ! ! ! 4 5 5 6 7 ! ! ! ! 8 9 0 a b c d ! ! [       ",
"= - ! ! ! ! ! ! ! ! e 1 1 1 f ! ! ! ! g h | ! i j ! ! ! [       ",
"= - ! ! ! ! k ! ! l 1 1 1 1 ' ! ! m g 8 n o p q = d ! ! [       ",
"= - ! ! ! ) 9 ] r s 1 1 1 1 t ~ u v w ! x y 1 z A ! ! ! [       ",
"= - ! ! ! p 1 1 1 1 1 1 1 B C C C C D E F F G F F F F F H I J   ",
"= - ! ! K 1 1 1 1 1 1 L M N O O P Q Q Q Q Q Q Q Q Q Q R O O S T ",
"= - ! ! U o 1 1 1 q V ! W F O O X Y Z Z Z Z Z Z Z Z Z `  .O ..+.",
"= - ! ! ! @.#.1 1 $.! ! W %.O O &.*.! ! ! ! ! ! ! ! ! =.-.O ..+.",
"= - ! ! ! ! ;.1 1 ' ! ! W %.O O &.*.! ! ! ! ! ! ! ! ! =.-.O ..+.",
"= - ! ! ! >.= 1 1 ,.! ! W %.O O &.*.! ! ! ! ! ! ! ! ! =.-.O ..+.",
"= - ! ! f . 1 1 1 '.& ! W ).O O &.*.! ! ! ! ! ! ! ! ! !.~.O ..+.",
"= - ! ! {.1 1 1 1 1 q ].^./.O O &.*.! ! ! ! ! ! ! ! ! (._.O ..+.",
"= - ! ! g ].1 1 1 1 1 1 :.<.O O [.}.|.|.|.|.|.|.|.|.1.2.-.O ..+.",
"= - ! ! ! 3.q 4.5.* 1 1 :.<.O O R 6.6.6.6.6.6.6.6.6. . .P O ..+.",
"= - ! ! ! ! 7.! ! 8.1 1 9.0.a.b.c.c.c.c.c.c.c.c.c.c.c.c.d.e.f.g.",
"= - ! ! ! ! ! ! ! ! h.1 :.<.i.j.O O O O O O O O O O O O O k...+.",
"= - ! ! ! ! ! ! ! ! a l.m.n.o.Q p.q.r.r.r.r.r.r.r.r.r.s.t. ...+.",
"u.v.7.7.7.7.7.7.7.7.7.7.w.).x.y.z.*.! ! ! ! ! ! ! ! ! A.B.C...+.",
"  D.E.E.E.E.E.E.E.E.E.E.F./.G.H.z.*.! ! ! ! ! ! ! ! ! A.-.I...+.",
"                          J.~.K.z.*.! ! ! ! ! ! ! ! ! A.j.L.M.+.",
"                          J.N.O.P.*.! ! ! ! ! ! ! ! ! A.-.Q...+.",
"                          J.R.S.&.T.! ! ! ! ! ! ! ! ! A.-.O ..+.",
"                          J.O O U.V.W.! X.Y.Y.Y.Y.Y.Y.Z.-.O ..+.",
"                          `.U.O S  +.+++@+ + + + + + +#+$+O %+&+",
"                            *+*+*+*+*+*+*+*+*+*+*+*+*+*+*+*+T   "};
